<svg width="178.92" height="43.2" viewBox="0 0 178.92 43.2" xmlns="http://www.w3.org/2000/svg"><g id="svgGroup" stroke-linecap="round" fill-rule="evenodd" font-size="9pt" stroke="#ffffff" stroke-width="0.25mm" fill="#ffffff" style="stroke:#ffffff;stroke-width:0.25mm;fill:#ffffff"><path d="M 62.7 42.48 L 37.5 42.48 L 37.5 0.48 L 62.7 0.48 L 62.7 5.4 L 43.2 5.4 L 43.2 18.18 L 60 18.18 L 60 22.98 L 43.2 22.98 L 43.2 37.56 L 62.7 37.56 L 62.7 42.48 Z M 100.62 40.68 L 95.28 43.2 L 90.06 31.8 Q 88.496 28.436 86.296 26.606 A 9.726 9.726 0 0 0 85.08 25.74 Q 82.467 24.172 78.579 23.97 A 22.708 22.708 0 0 0 77.4 23.94 L 76.5 23.94 L 76.5 42.48 L 70.8 42.48 L 70.8 0.6 Q 73.98 0.3 76.89 0.15 A 112.764 112.764 0 0 1 80.68 0.021 A 135.759 135.759 0 0 1 83.1 0 A 30.242 30.242 0 0 1 87.324 0.275 Q 89.483 0.581 91.227 1.225 A 12.057 12.057 0 0 1 94.65 3.12 Q 98.52 6.24 98.52 11.16 A 11.928 11.928 0 0 1 98.13 14.292 A 8.803 8.803 0 0 1 95.91 18.21 Q 93.733 20.437 89.95 21.725 A 24.885 24.885 0 0 1 88.38 22.2 A 14.194 14.194 0 0 1 90.437 23.318 A 12.256 12.256 0 0 1 91.26 23.91 A 10.543 10.543 0 0 1 92.496 25.064 Q 93.028 25.642 93.543 26.347 A 17.574 17.574 0 0 1 93.69 26.55 A 18.667 18.667 0 0 1 94.572 27.927 Q 95.31 29.19 96.06 30.84 L 100.62 40.68 Z M 137.64 40.68 L 132.3 43.2 L 127.08 31.8 Q 125.516 28.436 123.316 26.606 A 9.726 9.726 0 0 0 122.1 25.74 Q 119.487 24.172 115.599 23.97 A 22.708 22.708 0 0 0 114.42 23.94 L 113.52 23.94 L 113.52 42.48 L 107.82 42.48 L 107.82 0.6 Q 111 0.3 113.91 0.15 A 112.764 112.764 0 0 1 117.7 0.021 A 135.759 135.759 0 0 1 120.12 0 A 30.242 30.242 0 0 1 124.344 0.275 Q 126.503 0.581 128.247 1.225 A 12.057 12.057 0 0 1 131.67 3.12 Q 135.54 6.24 135.54 11.16 A 11.928 11.928 0 0 1 135.15 14.292 A 8.803 8.803 0 0 1 132.93 18.21 Q 130.753 20.437 126.97 21.725 A 24.885 24.885 0 0 1 125.4 22.2 A 14.194 14.194 0 0 1 127.457 23.318 A 12.256 12.256 0 0 1 128.28 23.91 A 10.543 10.543 0 0 1 129.516 25.064 Q 130.048 25.642 130.563 26.347 A 17.574 17.574 0 0 1 130.71 26.55 A 18.667 18.667 0 0 1 131.592 27.927 Q 132.33 29.19 133.08 30.84 L 137.64 40.68 Z M 178.92 40.98 L 173.7 43.08 L 169.02 31.08 L 149.58 31.08 L 144.9 42.96 L 140.04 40.98 L 156.48 0.48 L 162.72 0.48 L 178.92 40.98 Z M 18.6 42.48 L 12.9 42.48 L 12.9 5.52 L 0 5.52 L 0 0.48 L 31.5 0.48 L 31.5 5.52 L 18.6 5.52 L 18.6 42.48 Z M 159.3 6.12 L 151.38 26.28 L 167.16 26.28 L 159.3 6.12 Z M 76.5 5.04 L 76.5 19.14 L 83.1 19.14 Q 86.694 19.14 89.167 17.812 A 8.97 8.97 0 0 0 90.12 17.22 Q 92.82 15.3 92.82 11.7 A 5.887 5.887 0 0 0 90.856 7.222 A 7.963 7.963 0 0 0 90.3 6.75 Q 87.78 4.8 83.1 4.8 A 119.527 119.527 0 0 0 81.28 4.814 Q 80.301 4.829 79.44 4.86 Q 77.82 4.92 76.5 5.04 Z M 113.52 5.04 L 113.52 19.14 L 120.12 19.14 Q 123.714 19.14 126.187 17.812 A 8.97 8.97 0 0 0 127.14 17.22 Q 129.84 15.3 129.84 11.7 A 5.887 5.887 0 0 0 127.876 7.222 A 7.963 7.963 0 0 0 127.32 6.75 Q 124.8 4.8 120.12 4.8 A 119.527 119.527 0 0 0 118.3 4.814 Q 117.321 4.829 116.46 4.86 Q 114.84 4.92 113.52 5.04 Z" vector-effect="non-scaling-stroke"/></g></svg>